# xmcd
#
# Track frame offsets:
#  150
#  11833
#  24976
#  36733
#  48022
#  59485
#  71375
#  82024
#  94334
#  106316
#  120068
#  132569
#  143927
#  155610
#  168028
#  180183
#  192945
#  205735
#  218649
#  229131
#  241694
#  254123
#  266560
#  278785
#  291653
#  302461
#  315409
#  327980
#  342575
#
# Disc length: 4711 seconds
#
# Revision: 0
# Processed by: cddbd v1.5.2PL0 Copyright (c) Steve Scherf et al.
# Submitted via: AltoMP3_Maker 3.0
#
DISCID=a612651d
DTITLE=Various Artist - Trumpet Hillbilly
DYEAR=1900
DGENRE=
TTITLE0=Lucky Joe Almond - Rock Me
TTITLE1=Werly Fairburn - Camping with Marie
TTITLE2=Jimmy Swan - Juke Joint Mama
TTITLE3=Luke McDaniels - Whoa, Boy!
TTITLE4=Bill Blevins - An Hour Late and a Dollar Short
TTITLE5=Tag Williams - By and By
TTITLE6=Lucky Joe Almond - Hickory Nut Boogie
TTITLE7=Jimmy Swan - Lonesome Daddy Blues
TTITLE8=Tex Dean - Naponee
TTITLE9=Jimmy Swan - Losers Weepers
TTITLE10=Hdoges Bros - My Heart Fell at Her Feet
TTITLE11=Lucky Joe Almond - Gonna Roll and Rock
TTITLE12=Kay Kellum - When I Get Back
TTITLE13=Bill Blevins - Honeymoon Waltz
TTITLE14=Jimmy Swan - Triflin' on Me
TTITLE15=Tag Williams - One-sided Love
TTITLE16=Lucky Joe Almond - Every Day of the Week
TTITLE17=Don "Red" Barry - Give Me Back the Love I Gave
TTITLE18=Werly Fairburn - Let's Live It Over
TTITLE19=Jimmy Swan - One More Time
TTITLE20=Hodges Bros - It Won't Be Long
TTITLE21=Tag Williams - I Wouldn't Change a Thing
TTITLE22=Jimmy Swan - Mark of Shame
TTITLE23=Luke McDaniels - A Tribute to Hank Williams, My Buddy
TTITLE24=Lucky Joe Almond - Tanglewood Waltz
TTITLE25=Roy Harris - No One Else
TTITLE26=Don "Red" Barry - White Cross in Korea
TTITLE27=Jimmy Swan - I Had a Dream
TTITLE28=Kay Kellum - Love Stay Away from My Heart
EXTD=
EXTT0=
EXTT1=
EXTT2=
EXTT3=
EXTT4=
EXTT5=
EXTT6=
EXTT7=
EXTT8=
EXTT9=
EXTT10=
EXTT11=
EXTT12=
EXTT13=
EXTT14=
EXTT15=
EXTT16=
EXTT17=
EXTT18=
EXTT19=
EXTT20=
EXTT21=
EXTT22=
EXTT23=
EXTT24=
EXTT25=
EXTT26=
EXTT27=
EXTT28=
PLAYORDER=
